<svg width="48" height="30" viewBox="0 0 48 30" fill="none" xmlns="http://www.w3.org/2000/svg">
<path d="M8.576 30V5.64H0.00800001V0.599998H22.688V5.64H14.12V30H8.576ZM23.5234 30V25.128H27.3874V5.472H23.5234V0.599998H38.6434C40.4354 0.599998 41.9894 0.907998 43.3054 1.524C44.6494 2.112 45.6854 2.966 46.4134 4.086C47.1694 5.178 47.5474 6.494 47.5474 8.034V8.454C47.5474 9.798 47.2954 10.904 46.7914 11.772C46.2874 12.612 45.6854 13.27 44.9854 13.746C44.3134 14.194 43.6694 14.516 43.0534 14.712V15.468C43.6694 15.636 44.3414 15.958 45.0694 16.434C45.7974 16.882 46.4134 17.54 46.9174 18.408C47.4494 19.276 47.7154 20.41 47.7154 21.81V22.23C47.7154 23.854 47.3374 25.254 46.5814 26.43C45.8254 27.578 44.7754 28.46 43.4314 29.076C42.1154 29.692 40.5754 30 38.8114 30H23.5234ZM32.9314 24.96H38.1394C39.3434 24.96 40.3094 24.666 41.0374 24.078C41.7934 23.49 42.1714 22.65 42.1714 21.558V21.138C42.1714 20.046 41.8074 19.206 41.0794 18.618C40.3514 18.03 39.3714 17.736 38.1394 17.736H32.9314V24.96ZM32.9314 12.696H38.0554C39.2034 12.696 40.1414 12.402 40.8694 11.814C41.6254 11.226 42.0034 10.414 42.0034 9.378V8.958C42.0034 7.894 41.6394 7.082 40.9114 6.522C40.1834 5.934 39.2314 5.64 38.0554 5.64H32.9314V12.696Z" fill="#E8AA3D"/>
</svg>
